<svg width="18" height="12" viewBox="0 0 18 12" fill="none" xmlns="http://www.w3.org/2000/svg">
<g clip-path="url(#clip0)">
<path d="M9.26998 0.905C9.17658 0.81477 9.02771 0.817371 8.93748 0.910776C8.84947 1.00191 8.84947 1.14637 8.93748 1.23748L13.9442 6.24469L8.93701 11.2514C8.84361 11.3417 8.84103 11.4905 8.93124 11.5839C9.02147 11.6773 9.17031 11.6799 9.26374 11.5897C9.2657 11.5878 9.26762 11.5859 9.26952 11.5839L14.4427 6.41071C14.5345 6.31889 14.5345 6.17004 14.4427 6.0782L9.26998 0.905Z" fill="#F44336"/>
<path d="M9.10349 11.6531C8.97363 11.6533 8.86816 11.5482 8.86792 11.4184C8.86781 11.3557 8.89268 11.2957 8.93701 11.2515L13.9442 6.24471L8.93701 1.23799C8.84506 1.14604 8.84506 0.996971 8.93701 0.905022C9.02896 0.813072 9.17803 0.813072 9.26998 0.905022L14.4432 6.07825C14.535 6.17007 14.535 6.31891 14.4432 6.41075L9.26998 11.584C9.22589 11.6282 9.16597 11.6531 9.10349 11.6531Z" fill="#8A8FFD"/>
</g>
<g clip-path="url(#clip1)">
<path d="M3.86007 0.905C3.76666 0.81477 3.61779 0.817371 3.52756 0.910776C3.43956 1.00191 3.43956 1.14637 3.52756 1.23748L8.53431 6.24469L3.5271 11.2514C3.4337 11.3417 3.43112 11.4905 3.52132 11.5839C3.61155 11.6773 3.7604 11.6799 3.85383 11.5897C3.85579 11.5878 3.85771 11.5859 3.8596 11.5839L9.03283 6.41071C9.12463 6.31889 9.12463 6.17004 9.03283 6.0782L3.86007 0.905Z" fill="#F44336"/>
<path d="M3.69358 11.6531C3.56371 11.6533 3.45825 11.5482 3.45801 11.4184C3.4579 11.3557 3.48276 11.2957 3.5271 11.2515L8.5343 6.24471L3.5271 1.23799C3.43515 1.14604 3.43515 0.996971 3.5271 0.905022C3.61905 0.813072 3.76811 0.813072 3.86006 0.905022L9.03329 6.07825C9.12509 6.17007 9.12509 6.31891 9.03329 6.41075L3.86006 11.584C3.81597 11.6282 3.75606 11.6531 3.69358 11.6531Z" fill="#8A8FFD"/>
</g>
<defs>
<clipPath id="clip0">
<rect width="10.8197" height="10.8197" fill="white" transform="translate(6.27881 0.83606)"/>
</clipPath>
<clipPath id="clip1">
<rect width="10.8197" height="10.8197" fill="white" transform="translate(0.868896 0.83606)"/>
</clipPath>
</defs>
</svg>
