<svg width="22" height="22" viewBox="0 0 22 22" fill="none" xmlns="http://www.w3.org/2000/svg">
<g clip-path="url(#clip0)">
<path d="M0.140204 15.9182C-0.0432642 16.1082 -0.0379749 16.4109 0.151948 16.5943C0.337253 16.7733 0.63099 16.7733 0.816251 16.5943L10.9976 6.41394L21.1779 16.5953C21.3614 16.7852 21.6641 16.7904 21.854 16.607C22.044 16.4235 22.0492 16.1209 21.8658 15.9309C21.8619 15.9269 21.858 15.923 21.854 15.9192L11.3351 5.40027C11.1484 5.21362 10.8458 5.21362 10.6591 5.40027L0.140204 15.9182Z" fill="#F44336"/>
<path d="M21.9946 16.2565C21.9951 16.5205 21.7814 16.735 21.5173 16.7355C21.39 16.7357 21.2679 16.6851 21.178 16.595L10.9976 6.41365L0.817257 16.595C0.630292 16.7819 0.327187 16.7819 0.140223 16.595C-0.046741 16.408 -0.0467411 16.1049 0.140223 15.9179L10.6591 5.39905C10.8458 5.2124 11.1485 5.2124 11.3352 5.39905L21.8541 15.9179C21.944 16.0076 21.9946 16.1294 21.9946 16.2565Z" fill="white"/>
</g>
<defs>
<clipPath id="clip0">
<rect width="22" height="22" fill="white" transform="translate(0 22) rotate(-90)"/>
</clipPath>
</defs>
</svg>
