<svg width="31" height="31" viewBox="0 0 31 31" fill="none" xmlns="http://www.w3.org/2000/svg">
<g clip-path="url(#clip0)">
<path d="M23.3269 7.38182L10.5776 15.2341C9.8561 15.6795 9.51467 16.5592 9.74711 17.3728L11.1256 22.2166C11.2434 22.6296 11.6109 22.9041 12.0338 22.9041C12.0573 22.9041 12.0811 22.9033 12.105 22.9015C12.557 22.8687 12.9147 22.532 12.9749 22.0832L13.3333 19.4273C13.3816 19.0699 13.5538 18.7375 13.8177 18.4918L24.3387 8.71204C24.6566 8.41723 24.6986 7.93449 24.4366 7.5892C24.1742 7.24359 23.6974 7.15423 23.3269 7.38182ZM12.9765 17.5875C12.5038 18.0276 12.1958 18.6222 12.1093 19.262L11.9355 20.5503L10.9348 17.0342C10.8535 16.7494 10.9732 16.4414 11.2257 16.2855L20.5656 10.5332L12.9765 17.5875Z" fill="white"/>
<path d="M30.4957 2.26337C30.0973 1.92576 29.5477 1.83282 29.0608 2.02088L0.913064 12.8795C0.355609 13.0945 -0.00282888 13.6194 1.68209e-05 14.2167C0.00292307 14.8145 0.366628 15.3365 0.927353 15.5466L7.50214 18.0005L10.0668 26.2485C10.2077 26.7019 10.5631 27.0542 11.0176 27.1909C11.4718 27.3275 11.9624 27.2299 12.3291 26.93L16.152 23.8135C16.3356 23.6638 16.5977 23.6564 16.7894 23.7956L23.6847 28.8017C23.9327 28.982 24.2255 29.0748 24.5216 29.0748C24.6951 29.0748 24.8697 29.043 25.0373 28.9782C25.4906 28.8029 25.8202 28.4144 25.9189 27.939L30.9702 3.64099C31.0763 3.12937 30.8945 2.60153 30.4957 2.26337ZM29.761 3.39003L24.7097 27.688C24.6914 27.7758 24.6282 27.8123 24.5921 27.8263C24.5558 27.8403 24.484 27.8559 24.4106 27.8025L17.5151 22.7962C17.2069 22.5724 16.8445 22.4613 16.4827 22.4613C16.088 22.4613 15.6939 22.5936 15.3718 22.856L11.5481 25.9732C11.48 26.0289 11.4093 26.019 11.3734 26.0082C11.3372 25.9973 11.2726 25.9664 11.2463 25.8819L8.59162 17.3444C8.53489 17.162 8.39684 17.016 8.21786 16.9492L1.36002 14.3897C1.25733 14.3513 1.23548 14.2711 1.23517 14.2107C1.23487 14.1507 1.25594 14.071 1.35766 14.0317L29.5055 3.17321C29.5056 3.17315 29.5058 3.17309 29.506 3.17303C29.5974 3.13773 29.665 3.1783 29.6972 3.20554C29.7296 3.23309 29.781 3.29364 29.761 3.39003Z" fill="white"/>
</g>
<defs>
<clipPath id="clip0">
<rect width="31" height="31" fill="white"/>
</clipPath>
</defs>
</svg>
