<svg width="35" height="35" viewBox="0 0 35 35" fill="none" xmlns="http://www.w3.org/2000/svg">
<g clip-path="url(#clip0)">
<path d="M33.4448 22.9475C32.6835 22.0351 31.8234 21.2205 30.9915 20.4326C30.6992 20.1557 30.3968 19.8693 30.1056 19.585C30.1055 19.585 30.1054 19.5849 30.1054 19.5848C29.7137 19.2028 29.5219 18.9316 29.5019 18.7313C29.4822 18.5344 29.6167 18.2423 29.9262 17.8105C30.3889 17.1611 30.8821 16.5106 31.3593 15.8816C31.7834 15.3224 32.2219 14.7441 32.6421 14.1626L32.7365 14.032C33.5564 12.8971 34.4042 11.7236 34.8586 10.2935C34.9883 9.8835 35.123 9.27674 34.7981 8.74408C34.4729 8.21128 33.8702 8.05337 33.4454 7.98105C33.2379 7.9455 33.0411 7.94256 32.8579 7.94256L27.5391 7.93784C26.6195 7.92253 25.9816 8.35839 25.6339 9.23367C25.3557 9.93271 25.0271 10.7428 24.6464 11.5113C23.918 12.995 22.9925 14.7037 21.651 16.1275L21.5914 16.1909C21.5001 16.2884 21.3508 16.4478 21.2742 16.4844C21.1289 16.393 20.9612 15.8707 20.9688 15.5971C20.969 15.5903 20.9691 15.5836 20.9691 15.5769L20.9644 9.43116C20.9644 9.39992 20.9622 9.36868 20.958 9.33771C20.8388 8.46093 20.6062 7.58196 19.2185 7.30812C19.174 7.2993 19.1287 7.29492 19.0835 7.29492H13.5508C12.5099 7.29492 11.9593 7.77159 11.5179 8.28839C11.3902 8.43906 11.0507 8.8391 11.2236 9.32814C11.3986 9.823 11.9201 9.92178 12.0913 9.95418C12.6942 10.0686 13.006 10.4094 13.1025 11.0609C13.2933 12.3267 13.3167 13.6808 13.1762 15.3203C13.137 15.7604 13.0642 16.095 12.9466 16.3732C12.914 16.4503 12.8855 16.498 12.8655 16.5261C12.8336 16.5132 12.7841 16.4886 12.7154 16.4416C12.2918 16.1517 11.9724 15.701 11.6637 15.2653C10.4303 13.524 9.3929 11.6008 8.49171 9.38488C8.12059 8.47686 7.42291 7.9697 6.5285 7.95657C4.82443 7.92821 3.2484 7.92889 1.71195 7.95876C0.987268 7.97134 0.479083 8.19946 0.20127 8.63689C-0.0768851 9.07514 -0.0666995 9.63391 0.231622 10.298C2.36417 15.0401 4.30052 18.4898 6.5099 21.4835C8.06556 23.5912 9.63154 25.0542 11.4381 26.0878C13.3362 27.1737 15.4768 27.7059 17.9601 27.7058C18.2425 27.7058 18.5298 27.6989 18.821 27.685C20.3531 27.6152 20.9765 27.0058 21.0445 25.5136C21.0827 24.7249 21.1704 24.086 21.475 23.531C21.5602 23.3756 21.6563 23.2714 21.732 23.2523C21.8125 23.2322 21.9553 23.2815 22.1141 23.3847C22.4045 23.5732 22.6545 23.8289 22.86 24.0533C23.0684 24.2814 23.2789 24.517 23.4827 24.7449C23.9163 25.23 24.3647 25.7317 24.8344 26.2102C25.897 27.2933 27.1218 27.79 28.4765 27.686L33.344 27.6882C33.3442 27.6882 33.3442 27.6882 33.3443 27.6882C33.3598 27.6882 33.3752 27.6878 33.3907 27.6867C33.9521 27.6493 34.4375 27.3385 34.7226 26.8337C35.0658 26.2259 35.0606 25.456 34.7084 24.7734C34.3409 24.0637 33.8641 23.453 33.4448 22.9475ZM33.5084 26.1482C33.4413 26.267 33.3585 26.2887 33.3158 26.2939L28.4493 26.2917C28.4492 26.2917 28.449 26.2917 28.4488 26.2917C28.4296 26.2917 28.4104 26.2924 28.3913 26.294C27.4326 26.3739 26.6177 26.0369 25.8296 25.2337C25.3826 24.7782 24.9452 24.289 24.5223 23.8158C24.3162 23.5852 24.1031 23.3467 23.889 23.1124C23.6235 22.8224 23.2953 22.4891 22.8736 22.2153C22.2422 21.8055 21.719 21.8179 21.3914 21.9004C21.0671 21.9821 20.6063 22.2152 20.2525 22.8608C19.7942 23.6961 19.6931 24.5972 19.652 25.4485C19.6282 25.9691 19.5401 26.1067 19.5033 26.1416C19.4552 26.1874 19.2941 26.2679 18.7567 26.2925C16.1744 26.4139 14.0072 25.9514 12.1306 24.8777C10.498 23.9436 9.06846 22.6019 7.63189 20.6557C5.48369 17.745 3.59355 14.3743 1.50345 9.72654C1.42771 9.55817 1.40433 9.4531 1.39756 9.39684C1.45088 9.37934 1.55506 9.35631 1.73772 9.35296C3.25858 9.32349 4.81814 9.32267 6.50683 9.35084C6.73802 9.35426 7.00127 9.42364 7.20061 9.91139C8.14219 12.2267 9.22986 14.2416 10.526 16.0714C10.8701 16.5571 11.2984 17.1617 11.9279 17.5924C12.5046 17.9873 12.9725 17.9684 13.2636 17.8831C13.5548 17.7977 13.9589 17.5605 14.2311 16.916C14.4067 16.5006 14.5129 16.0328 14.5655 15.4417C14.7156 13.6881 14.689 12.2301 14.4817 10.855C14.3356 9.86969 13.8269 9.15793 13.0255 8.79446C13.1679 8.72036 13.3282 8.68946 13.5509 8.68946H19.0113C19.3185 8.75837 19.3793 8.8393 19.4002 8.86699C19.4887 8.98463 19.5392 9.26293 19.5701 9.48038L19.5748 15.5694C19.5625 16.1532 19.8462 17.4478 20.8121 17.8028C20.82 17.8057 20.828 17.8084 20.836 17.811C21.7154 18.0984 22.2971 17.4776 22.6093 17.1441L22.665 17.0849C24.1344 15.5253 25.1239 13.703 25.897 12.1283C26.2999 11.3152 26.6412 10.4741 26.9297 9.74903C27.0741 9.38543 27.2055 9.32554 27.519 9.33218C27.5233 9.33231 27.5275 9.33231 27.5319 9.33231L32.8575 9.33703C32.9813 9.33703 33.1106 9.33847 33.2109 9.35562C33.4646 9.39883 33.5692 9.45146 33.6036 9.47327C33.6072 9.51367 33.6063 9.62988 33.5296 9.87242C33.1433 11.0885 32.3968 12.1217 31.6065 13.2155L31.5121 13.3463C31.1014 13.9145 30.6678 14.4862 30.2486 15.0392C29.7653 15.6764 29.2657 16.3351 28.792 17C27.7794 18.4129 27.8684 19.3506 29.1321 20.5832C29.4308 20.8748 29.7369 21.1648 30.033 21.4452C30.8726 22.2404 31.6656 22.9915 32.3733 23.8395C32.7438 24.2862 33.1638 24.8226 33.47 25.4138C33.6297 25.7232 33.5905 26.0028 33.5084 26.1482Z" fill="black"/>
</g>
<defs>
<clipPath id="clip0">
<rect width="35" height="35" fill="white"/>
</clipPath>
</defs>
</svg>
