<svg width="30" height="30" viewBox="0 0 30 30" fill="none" xmlns="http://www.w3.org/2000/svg">
<path d="M15 0C6.72865 0 0 6.72865 0 15C0 17.8217 0.784038 20.561 2.27135 22.9396C1.67885 25.0154 0.608654 28.9419 0.597115 28.9829C0.541731 29.186 0.601154 29.4029 0.752885 29.5488C0.904615 29.6948 1.12385 29.7467 1.32346 29.6856L7.26923 27.8567C9.59827 29.2598 12.2654 30 15 30C23.2713 30 30 23.2713 30 15C30 6.72865 23.2713 0 15 0ZM15 28.8462C12.3929 28.8462 9.85327 28.1175 7.65519 26.7398C7.56231 26.6815 7.45558 26.6521 7.34885 26.6521C7.29173 26.6521 7.23462 26.6608 7.17923 26.6775L1.9875 28.2756C2.36885 26.8835 3.05423 24.3935 3.45173 23.0083C3.49788 22.8479 3.47192 22.6748 3.38135 22.5346C1.92404 20.2921 1.15385 17.6867 1.15385 15C1.15385 7.36558 7.36558 1.15385 15 1.15385C22.6344 1.15385 28.8462 7.36558 28.8462 15C28.8462 22.6344 22.6344 28.8462 15 28.8462Z" fill="white"/>
<path d="M24.7991 18.5342C23.7341 17.9429 22.8272 17.3498 22.1655 16.9171C21.6601 16.5871 21.2949 16.3489 21.0272 16.2144C20.2789 15.8412 19.7118 16.1048 19.496 16.3229C19.4689 16.35 19.4447 16.3794 19.4239 16.4106C18.6468 17.5766 17.632 18.6917 17.3349 18.7517C16.9916 18.6981 15.3849 17.7848 13.788 16.455C12.1576 15.0964 11.1318 13.7954 10.9812 12.9092C12.0272 11.8327 12.4039 11.1554 12.4039 10.3846C12.4039 9.59021 10.5508 6.27348 10.2157 5.93829C9.87931 5.60252 9.12181 5.55002 7.96392 5.78079C7.85257 5.80329 7.74988 5.85809 7.66911 5.93829C7.52892 6.07848 4.24854 9.4229 5.80738 13.4764C7.51854 17.925 11.9107 23.096 17.5103 23.936C18.1466 24.0312 18.7432 24.0785 19.3016 24.0785C22.5958 24.0785 24.5401 22.421 25.0876 19.1331C25.1285 18.8925 25.0126 18.6525 24.7991 18.5342ZM17.6816 22.7948C11.7601 21.9069 8.03027 16.0402 6.8845 13.0621C5.74796 10.1083 7.84392 7.47463 8.37008 6.87925C8.79815 6.80655 9.24873 6.77598 9.43681 6.8054C9.82969 7.35175 11.1901 9.92194 11.2501 10.3846C11.2501 10.6875 11.1514 11.1092 9.97681 12.2844C9.86834 12.3923 9.80777 12.5389 9.80777 12.6923C9.80777 15.7131 16.1793 19.9039 17.3078 19.9039C18.2891 19.9039 19.5687 18.2544 20.2974 17.1796C20.3395 17.1814 20.4105 17.1958 20.5114 17.2466C20.7191 17.351 21.0791 17.5858 21.5343 17.8835C22.1355 18.2764 22.9339 18.7979 23.8766 19.3385C23.4485 21.3981 22.252 23.4814 17.6816 22.7948Z" fill="white"/>
</svg>
